<?xml version="1.0"?><svg xmlns="http://www.w3.org/2000/svg" viewBox="0 0 225.000000 225.000000" width="48px" height="48px">       <g transform="translate(0.000000,225.000000) scale(0.100000,-0.100000)" fill="none" stroke="none"><path fill="#03d8ae"  d="M0 1125 l0 -1125 1125 0 1125 0 0 1125 0 1125 -1125 0 -1125 0 0 -1125z m994 316 c61 -30 85 -78 86 -168 l0 -63 -105 0 -105 0 0 25 c0 15 -10 31 -26 42 -23 14 -53 17 -198 18 -196 0 -217 -6 -235 -72 -14 -51 -13 -209 2 -253 18 -53 57 -62 260 -58 163 3 169 4 188 27 10 13 19 36 19 52 l0 30 108 -3 107 -3 -2 -78 c-2 -97 -21 -133 -85 -165 -61 -31 -248 -43 -496 -32 -162 7 -188 11 -230 32 -28 14 -54 36 -66 56 -32 56 -42 308 -20 490 4 28 16 55 35 77 56 63 125 74 464 72 242 -2 252 -3 299 -26z m940 14 c121 -21 159 -60 172 -172 l7 -63 -102 0 c-55 0 -104 -1 -108 -2 -5 -2 -9 9 -11 25 -5 45 -30 51 -237 51 -214 1 -247 -6 -264 -56 -14 -41 -14 -236 0 -277 6 -17 19 -36 29 -41 11 -6 112 -10 231 -10 238 0 249 3 249 67 l0 33 -145 0 -145 0 0 70 0 70 250 0 250 0 -1 -92 c-2 -198 -18 -244 -101 -286 -41 -20 -69 -24 -215 -32 -92 -4 -239 -4 -326 0 -235 12 -276 38 -298 196 -13 93 -6 343 12 394 41 119 100 137 464 138 141 1 236 -3 289 -13z"></path></g></svg>